<?xml version="1.0" encoding="UTF-8"?>
<svg id="Layer_1" data-name="Layer 1" xmlns="http://www.w3.org/2000/svg" viewBox="0 0 439.25 84.22">
  <defs>
    <style>
      .cls-1 {
        fill: #162959;
      }
    </style>
  </defs>
  <path class="cls-1" d="M0,43.05c0-3.88.74-7.55,2.21-11,1.47-3.45,3.49-6.45,6.06-9.02s5.58-4.59,9.02-6.06c3.45-1.47,7.11-2.21,11-2.21s7.55.74,11,2.21c3.45,1.47,6.44,3.49,8.98,6.06,2.54,2.57,4.54,5.58,6.02,9.02,1.47,3.45,2.21,7.11,2.21,11s-.74,7.55-2.21,11c-1.47,3.45-3.48,6.44-6.02,8.98s-5.53,4.54-8.98,6.02c-3.45,1.47-7.11,2.21-11,2.21-1.32,0-2.68-.17-4.09-.52-1.41-.34-2.77-.81-4.09-1.41-1.32-.6-2.52-1.27-3.62-2.02-1.1-.75-1.96-1.54-2.58-2.35l.19,19.18H0v-41.08ZM13.82,43.05c0,2.01.38,3.87,1.13,5.59.75,1.72,1.79,3.24,3.1,4.56s2.85,2.35,4.61,3.1c1.75.75,3.63,1.13,5.64,1.13s3.79-.38,5.55-1.13c1.75-.75,3.29-1.79,4.61-3.1s2.35-2.83,3.1-4.56c.75-1.72,1.13-3.59,1.13-5.59s-.38-3.88-1.13-5.64c-.75-1.75-1.79-3.29-3.1-4.61-1.32-1.32-2.85-2.35-4.61-3.1-1.75-.75-3.6-1.13-5.55-1.13s-3.89.38-5.64,1.13c-1.75.75-3.29,1.79-4.61,3.1-1.32,1.32-2.35,2.85-3.1,4.61-.75,1.75-1.13,3.64-1.13,5.64Z"/>
  <path class="cls-1" d="M75.67,44.37l.1,26.32h-14.01c0-10.72.01-19.54.05-26.46.03-6.92.05-12.39.05-16.4v-10.72l14.1-.19-.38,7.8c.56-1.13,1.25-2.18,2.07-3.15.81-.97,1.83-1.82,3.05-2.54,1.22-.72,2.68-1.28,4.37-1.69,1.69-.41,3.73-.61,6.11-.61v13.82c-2.01,0-3.93.27-5.78.8-1.85.53-3.49,1.36-4.94,2.49-1.44,1.13-2.6,2.55-3.48,4.28-.88,1.72-1.32,3.81-1.32,6.25Z"/>
  <path class="cls-1" d="M148.05,43.05c0,3.89-.74,7.55-2.21,11-1.47,3.45-3.48,6.46-6.02,9.02-2.54,2.57-5.53,4.59-8.98,6.06-3.45,1.47-7.11,2.21-11,2.21s-7.55-.74-11-2.21c-3.45-1.47-6.46-3.49-9.02-6.06-2.57-2.57-4.59-5.58-6.06-9.02-1.47-3.45-2.21-7.11-2.21-11s.74-7.55,2.21-11c1.47-3.45,3.49-6.44,6.06-8.98,2.57-2.54,5.58-4.54,9.02-6.02,3.45-1.47,7.11-2.21,11-2.21s7.55.74,11,2.21c3.45,1.47,6.44,3.48,8.98,6.02,2.54,2.54,4.54,5.53,6.02,8.98,1.47,3.45,2.21,7.11,2.21,11ZM134.23,43.05c0-1.94-.38-3.79-1.13-5.55-.75-1.75-1.79-3.29-3.1-4.61-1.32-1.32-2.85-2.35-4.61-3.1-1.75-.75-3.6-1.13-5.55-1.13s-3.89.38-5.64,1.13c-1.75.75-3.29,1.79-4.61,3.1-1.32,1.32-2.35,2.85-3.1,4.61-.75,1.76-1.13,3.6-1.13,5.55s.38,3.89,1.13,5.64c.75,1.76,1.79,3.29,3.1,4.61,1.32,1.32,2.85,2.35,4.61,3.1,1.75.75,3.63,1.13,5.64,1.13s3.79-.38,5.55-1.13c1.75-.75,3.29-1.79,4.61-3.1,1.32-1.32,2.35-2.85,3.1-4.61.75-1.75,1.13-3.63,1.13-5.64Z"/>
  <path class="cls-1" d="M201.06,29.42c-2.01,0-3.71.71-5.12,2.12-1.41,1.41-2.11,3.12-2.11,5.12l-.19,34.03h-13.35l-.19-34.03c0-4.83-2.38-7.24-7.14-7.24-2.01,0-3.7.71-5.08,2.12-1.38,1.41-2.07,3.12-2.07,5.12l-.19,34.03h-13.63l.09-35.16c0-3.45.72-6.42,2.16-8.93,1.44-2.51,3.23-4.56,5.36-6.16,2.13-1.6,4.4-2.77,6.82-3.52,2.41-.75,4.59-1.13,6.53-1.13,2.07,0,4.37.42,6.91,1.27,2.54.85,4.9,2.18,7.1,4,2.19-1.82,4.57-3.15,7.14-4,2.57-.85,4.89-1.27,6.96-1.27,1.94,0,4.12.38,6.53,1.13,2.41.75,4.67,1.93,6.77,3.52,2.1,1.6,3.85,3.65,5.26,6.16,1.41,2.51,2.12,5.48,2.12,8.93l-.19,35.16h-13.25l-.09-34.03c0-2-.69-3.71-2.07-5.12-1.38-1.41-3.07-2.12-5.08-2.12Z"/>
  <path class="cls-1" d="M228.98,43.05c0-3.88.74-7.55,2.21-11,1.47-3.45,3.49-6.45,6.06-9.02,2.57-2.57,5.58-4.59,9.02-6.06,3.45-1.47,7.11-2.21,11-2.21s7.55.74,11,2.21c3.45,1.47,6.44,3.49,8.98,6.06,2.54,2.57,4.54,5.58,6.02,9.02,1.47,3.45,2.21,7.11,2.21,11s-.74,7.55-2.21,11c-1.47,3.45-3.48,6.44-6.02,8.98s-5.53,4.54-8.98,6.02c-3.45,1.47-7.11,2.21-11,2.21-1.32,0-2.68-.17-4.09-.52s-2.77-.81-4.09-1.41c-1.32-.6-2.52-1.27-3.62-2.02-1.1-.75-1.96-1.54-2.58-2.35l.19,19.18h-14.1v-41.08ZM242.8,43.05c0,2.01.38,3.87,1.13,5.59.75,1.72,1.79,3.24,3.1,4.56,1.32,1.32,2.85,2.35,4.61,3.1,1.75.75,3.63,1.13,5.64,1.13s3.79-.38,5.55-1.13c1.75-.75,3.29-1.79,4.61-3.1,1.32-1.32,2.35-2.83,3.1-4.56.75-1.72,1.13-3.59,1.13-5.59s-.38-3.88-1.13-5.64c-.75-1.75-1.79-3.29-3.1-4.61-1.32-1.32-2.85-2.35-4.61-3.1-1.76-.75-3.6-1.13-5.55-1.13s-3.89.38-5.64,1.13c-1.75.75-3.29,1.79-4.61,3.1-1.32,1.32-2.35,2.85-3.1,4.61-.75,1.75-1.13,3.64-1.13,5.64Z"/>
  <path class="cls-1" d="M285.85,17.2h7.33l-.09-14.57h13.91v14.66h12.6l.19,12.78h-12.5l-.28,15.6c-.06,2.07.38,3.82,1.32,5.26.94,1.44,2.12,2.6,3.53,3.48,1.41.88,2.96,1.5,4.65,1.88,1.69.38,3.29.56,4.79.56v13.82c-3.89,0-7.54-.5-10.95-1.5-3.42-1-6.38-2.62-8.88-4.84-2.51-2.22-4.5-5.12-5.97-8.69-1.47-3.57-2.21-7.96-2.21-13.16l-.09-12.41h-7.33v-12.88Z"/>
  <path class="cls-1" d="M335.72,12.5c-2.14,0-3.99-.75-5.53-2.26s-2.32-3.35-2.32-5.55V.75c0-.38.03-.63.09-.75h15.6v4.7c0,2.19-.76,4.04-2.27,5.55s-3.37,2.26-5.58,2.26ZM342.91,17.2h-14.1v53.49h14.1V17.2Z"/>
  <path class="cls-1" d="M346.01,27.82h5.55c.31-4.53,1.22-8.4,2.73-11.6,1.5-3.21,3.48-5.8,5.92-7.78s5.26-3.43,8.46-4.34,6.64-1.37,10.34-1.37v13.82c-1.44,0-2.99.19-4.65.57-1.66.38-3.2,1.02-4.61,1.91-1.41.89-2.58,2.05-3.53,3.49-.94,1.43-1.44,3.23-1.5,5.4l12.88-.09-.19,12.78h-12.69v30.08h-13.82l.09-29.99h-4.98v-12.88Z"/>
  <path class="cls-1" d="M410.96,71.35c-3.89,0-7.55-.74-11-2.21-3.45-1.47-6.44-3.49-8.98-6.06-2.54-2.57-4.54-5.58-6.02-9.02-1.47-3.45-2.21-7.11-2.21-11l-.38-26.7h13.82l.38,26.7c0,2.01.38,3.89,1.13,5.64.75,1.76,1.79,3.29,3.1,4.61,1.32,1.32,2.83,2.35,4.56,3.1,1.72.75,3.59,1.13,5.59,1.13s3.88-.38,5.64-1.13c1.75-.75,3.29-1.79,4.61-3.1,1.32-1.32,2.35-2.85,3.1-4.61.75-1.75,1.13-3.63,1.13-5.64l-.28-26.7h14.1v67.87h-14.1l.19-12.13.28-7.05c-.56.88-1.4,1.69-2.49,2.44-1.1.75-2.32,1.41-3.67,1.97-1.35.56-2.77,1.02-4.28,1.36-1.5.34-2.91.52-4.23.52Z"/>
</svg>