<svg width="56" height="24" viewBox="0 0 56 24" fill="none" xmlns="http://www.w3.org/2000/svg">
<rect x="32.5" y="0.5" width="23" height="23" rx="11.5" fill="#F2F4F8"/>
<rect x="32.5" y="0.5" width="23" height="23" rx="11.5" stroke="#DDE1E6"/>
<path d="M41.6894 12.0467C41.7713 12.0117 41.8595 11.9936 41.9486 11.9932C42.0377 11.9929 42.126 12.0105 42.2082 12.0448C42.2904 12.0792 42.3649 12.1297 42.4273 12.1934C42.4896 12.257 42.5386 12.3326 42.5712 12.4155C42.6039 12.4984 42.6196 12.587 42.6175 12.6761C42.6153 12.7652 42.5953 12.8529 42.5587 12.9341C42.522 13.0154 42.4694 13.0884 42.4041 13.149C42.3387 13.2095 42.2618 13.2564 42.178 13.2867C41.7324 13.4623 41.3499 13.7679 41.0804 14.1639C40.8108 14.5598 40.6667 15.0277 40.6667 15.5067V16.6667C40.6667 16.8435 40.7369 17.0131 40.862 17.1381C40.987 17.2631 41.1566 17.3334 41.3334 17.3334H46.6667C46.8435 17.3334 47.0131 17.2631 47.1381 17.1381C47.2631 17.0131 47.3334 16.8435 47.3334 16.6667V15.5687C47.3334 15.0744 47.1833 14.5917 46.9028 14.1846C46.6223 13.7775 46.2247 13.4653 45.7627 13.2894C45.6784 13.2601 45.6008 13.2142 45.5346 13.1544C45.4683 13.0946 45.4148 13.0222 45.3771 12.9413C45.3393 12.8604 45.3183 12.7728 45.315 12.6836C45.3118 12.5944 45.3265 12.5055 45.3583 12.4221C45.3901 12.3387 45.4383 12.2626 45.5001 12.1982C45.5618 12.1337 45.6359 12.0824 45.7179 12.0471C45.7999 12.0119 45.8881 11.9934 45.9773 11.9929C46.0665 11.9924 46.155 12.0098 46.2374 12.044C46.9518 12.3162 47.5666 12.7989 48.0005 13.4284C48.4343 14.0578 48.6667 14.8042 48.6667 15.5687V16.6667C48.6667 17.1971 48.456 17.7058 48.0809 18.0809C47.7058 18.456 47.1971 18.6667 46.6667 18.6667H41.3334C40.8029 18.6667 40.2942 18.456 39.9192 18.0809C39.5441 17.7058 39.3334 17.1971 39.3334 16.6667V15.5067C39.3335 14.7601 39.5582 14.0309 39.9784 13.4138C40.3986 12.7967 40.9948 12.3204 41.6894 12.0467ZM44 5.33337C44.7073 5.33337 45.3856 5.61433 45.8857 6.11442C46.3858 6.61452 46.6667 7.2928 46.6667 8.00004V9.33337C46.6667 10.0406 46.3858 10.7189 45.8857 11.219C45.3856 11.7191 44.7073 12 44 12C43.2928 12 42.6145 11.7191 42.1144 11.219C41.6143 10.7189 41.3334 10.0406 41.3334 9.33337V8.00004C41.3334 7.2928 41.6143 6.61452 42.1144 6.11442C42.6145 5.61433 43.2928 5.33337 44 5.33337V5.33337ZM44 6.66671C43.6464 6.66671 43.3073 6.80718 43.0572 7.05723C42.8072 7.30728 42.6667 7.64642 42.6667 8.00004V9.33337C42.6667 9.687 42.8072 10.0261 43.0572 10.2762C43.3073 10.5262 43.6464 10.6667 44 10.6667C44.3537 10.6667 44.6928 10.5262 44.9428 10.2762C45.1929 10.0261 45.3334 9.687 45.3334 9.33337V8.00004C45.3334 7.64642 45.1929 7.30728 44.9428 7.05723C44.6928 6.80718 44.3537 6.66671 44 6.66671Z" fill="#C1C7CD"/>
<rect x="16.5" y="0.5" width="23" height="23" rx="11.5" fill="#F2F4F8"/>
<rect x="16.5" y="0.5" width="23" height="23" rx="11.5" stroke="#DDE1E6"/>
<path d="M25.6894 12.0467C25.7713 12.0117 25.8595 11.9936 25.9486 11.9932C26.0377 11.9929 26.126 12.0105 26.2082 12.0448C26.2904 12.0792 26.3649 12.1297 26.4273 12.1934C26.4896 12.257 26.5386 12.3326 26.5712 12.4155C26.6039 12.4984 26.6196 12.587 26.6175 12.6761C26.6153 12.7652 26.5953 12.8529 26.5587 12.9341C26.522 13.0154 26.4694 13.0884 26.4041 13.149C26.3387 13.2095 26.2618 13.2564 26.178 13.2867C25.7324 13.4623 25.3499 13.7679 25.0804 14.1639C24.8108 14.5598 24.6667 15.0277 24.6667 15.5067V16.6667C24.6667 16.8435 24.7369 17.0131 24.862 17.1381C24.987 17.2631 25.1566 17.3334 25.3334 17.3334H30.6667C30.8435 17.3334 31.0131 17.2631 31.1381 17.1381C31.2631 17.0131 31.3334 16.8435 31.3334 16.6667V15.5687C31.3334 15.0744 31.1833 14.5917 30.9028 14.1846C30.6223 13.7775 30.2247 13.4653 29.7627 13.2894C29.6784 13.2601 29.6008 13.2142 29.5346 13.1544C29.4683 13.0946 29.4148 13.0222 29.3771 12.9413C29.3393 12.8604 29.3183 12.7728 29.315 12.6836C29.3118 12.5944 29.3265 12.5055 29.3583 12.4221C29.3901 12.3387 29.4383 12.2626 29.5001 12.1982C29.5618 12.1337 29.6359 12.0824 29.7179 12.0471C29.7999 12.0119 29.8881 11.9934 29.9773 11.9929C30.0665 11.9924 30.155 12.0098 30.2374 12.044C30.9518 12.3162 31.5666 12.7989 32.0005 13.4284C32.4343 14.0578 32.6667 14.8042 32.6667 15.5687V16.6667C32.6667 17.1971 32.456 17.7058 32.0809 18.0809C31.7058 18.456 31.1971 18.6667 30.6667 18.6667H25.3334C24.8029 18.6667 24.2942 18.456 23.9192 18.0809C23.5441 17.7058 23.3334 17.1971 23.3334 16.6667V15.5067C23.3335 14.7601 23.5582 14.0309 23.9784 13.4138C24.3986 12.7967 24.9948 12.3204 25.6894 12.0467ZM28 5.33337C28.7073 5.33337 29.3856 5.61433 29.8857 6.11442C30.3858 6.61452 30.6667 7.2928 30.6667 8.00004V9.33337C30.6667 10.0406 30.3858 10.7189 29.8857 11.219C29.3856 11.7191 28.7073 12 28 12C27.2928 12 26.6145 11.7191 26.1144 11.219C25.6143 10.7189 25.3334 10.0406 25.3334 9.33337V8.00004C25.3334 7.2928 25.6143 6.61452 26.1144 6.11442C26.6145 5.61433 27.2928 5.33337 28 5.33337V5.33337ZM28 6.66671C27.6464 6.66671 27.3073 6.80718 27.0572 7.05723C26.8072 7.30728 26.6667 7.64642 26.6667 8.00004V9.33337C26.6667 9.687 26.8072 10.0261 27.0572 10.2762C27.3073 10.5262 27.6464 10.6667 28 10.6667C28.3537 10.6667 28.6928 10.5262 28.9428 10.2762C29.1929 10.0261 29.3334 9.687 29.3334 9.33337V8.00004C29.3334 7.64642 29.1929 7.30728 28.9428 7.05723C28.6928 6.80718 28.3537 6.66671 28 6.66671Z" fill="#C1C7CD"/>
<rect x="0.5" y="0.5" width="23" height="23" rx="11.5" fill="#F2F4F8"/>
<rect x="0.5" y="0.5" width="23" height="23" rx="11.5" stroke="#DDE1E6"/>
<path d="M9.68937 12.0467C9.77134 12.0117 9.85948 11.9936 9.94859 11.9932C10.0377 11.9929 10.126 12.0105 10.2082 12.0448C10.2904 12.0792 10.3649 12.1297 10.4273 12.1934C10.4896 12.257 10.5386 12.3326 10.5712 12.4155C10.6039 12.4984 10.6196 12.587 10.6175 12.6761C10.6153 12.7652 10.5953 12.8529 10.5587 12.9341C10.522 13.0154 10.4694 13.0884 10.4041 13.149C10.3387 13.2095 10.2618 13.2564 10.178 13.2867C9.7324 13.4623 9.34993 13.7679 9.08038 14.1639C8.81083 14.5598 8.66669 15.0277 8.66671 15.5067V16.6667C8.66671 16.8435 8.73695 17.0131 8.86197 17.1381C8.98699 17.2631 9.15656 17.3334 9.33337 17.3334H14.6667C14.8435 17.3334 15.0131 17.2631 15.1381 17.1381C15.2631 17.0131 15.3334 16.8435 15.3334 16.6667V15.5687C15.3334 15.0744 15.1833 14.5917 14.9028 14.1846C14.6223 13.7775 14.2247 13.4653 13.7627 13.2894C13.6784 13.2601 13.6008 13.2142 13.5346 13.1544C13.4683 13.0946 13.4148 13.0222 13.3771 12.9413C13.3393 12.8604 13.3183 12.7728 13.315 12.6836C13.3118 12.5944 13.3265 12.5055 13.3583 12.4221C13.3901 12.3387 13.4383 12.2626 13.5001 12.1982C13.5618 12.1337 13.6359 12.0824 13.7179 12.0471C13.7999 12.0119 13.8881 11.9934 13.9773 11.9929C14.0665 11.9924 14.155 12.0098 14.2374 12.044C14.9518 12.3162 15.5666 12.7989 16.0005 13.4284C16.4343 14.0578 16.6667 14.8042 16.6667 15.5687V16.6667C16.6667 17.1971 16.456 17.7058 16.0809 18.0809C15.7058 18.456 15.1971 18.6667 14.6667 18.6667H9.33337C8.80294 18.6667 8.29423 18.456 7.91916 18.0809C7.54409 17.7058 7.33337 17.1971 7.33337 16.6667V15.5067C7.33347 14.7601 7.55823 14.0309 7.97841 13.4138C8.3986 12.7967 8.99477 12.3204 9.68937 12.0467ZM12 5.33337C12.7073 5.33337 13.3856 5.61433 13.8857 6.11442C14.3858 6.61452 14.6667 7.2928 14.6667 8.00004V9.33337C14.6667 10.0406 14.3858 10.7189 13.8857 11.219C13.3856 11.7191 12.7073 12 12 12C11.2928 12 10.6145 11.7191 10.1144 11.219C9.61433 10.7189 9.33337 10.0406 9.33337 9.33337V8.00004C9.33337 7.2928 9.61433 6.61452 10.1144 6.11442C10.6145 5.61433 11.2928 5.33337 12 5.33337V5.33337ZM12 6.66671C11.6464 6.66671 11.3073 6.80718 11.0572 7.05723C10.8072 7.30728 10.6667 7.64642 10.6667 8.00004V9.33337C10.6667 9.687 10.8072 10.0261 11.0572 10.2762C11.3073 10.5262 11.6464 10.6667 12 10.6667C12.3537 10.6667 12.6928 10.5262 12.9428 10.2762C13.1929 10.0261 13.3334 9.687 13.3334 9.33337V8.00004C13.3334 7.64642 13.1929 7.30728 12.9428 7.05723C12.6928 6.80718 12.3537 6.66671 12 6.66671Z" fill="#C1C7CD"/>
</svg>
