<svg width="60" height="60" viewBox="0 0 60 60" fill="none" xmlns="http://www.w3.org/2000/svg">
<path d="M0 4C0 1.79086 1.79086 0 4 0H56C58.2091 0 60 1.79086 60 4V56C60 58.2091 58.2091 60 56 60H4C1.79086 60 0 58.2091 0 56V4Z" fill="#2563EB"/>
<path fill-rule="evenodd" clip-rule="evenodd" d="M50.8417 22.3612V42.9839C50.8417 44.1353 50.3842 45.2396 49.57 46.0538C48.7558 46.8681 47.6515 47.3255 46.5 47.3255H33.4752V45.1547H46.5C47.0758 45.1547 47.6279 44.926 48.035 44.5189C48.4421 44.1117 48.6708 43.5596 48.6708 42.9839V22.3612H44.3292C43.4656 22.3612 42.6374 22.0181 42.0267 21.4074C41.4161 20.7968 41.073 19.9686 41.073 19.105V14.7633H29.1336C28.5578 14.7633 28.0057 14.992 27.5986 15.3992C27.1915 15.8063 26.9628 16.3584 26.9628 16.9341V36.4714H24.7919V16.9341C24.7919 15.7827 25.2494 14.6784 26.0636 13.8642C26.8778 13.0499 27.9821 12.5925 29.1336 12.5925H41.073L50.8417 22.3612Z" fill="white"/>
<path d="M29.7001 44.5278H31.4119C31.3775 45.0889 31.223 45.5869 30.9481 46.022C30.6772 46.4572 30.2974 46.7968 29.8088 47.0411C29.3241 47.2854 28.7402 47.4075 28.057 47.4075C27.5226 47.4075 27.0436 47.3159 26.62 47.1327C26.1963 46.9457 25.8337 46.6785 25.5322 46.3312C25.2345 45.9839 25.0074 45.564 24.8509 45.0717C24.6944 44.5793 24.6162 44.0278 24.6162 43.4171V42.8389C24.6162 42.2282 24.6963 41.6767 24.8566 41.1843C25.0207 40.6881 25.2536 40.2664 25.5551 39.9191C25.8604 39.5717 26.2249 39.3046 26.6486 39.1175C27.0722 38.9305 27.5455 38.837 28.0684 38.837C28.7631 38.837 29.3489 38.963 29.826 39.2149C30.3069 39.4668 30.6791 39.8141 30.9424 40.2568C31.2096 40.6996 31.3699 41.2034 31.4233 41.7683H29.7058C29.6867 41.4324 29.6199 41.1481 29.5054 40.9152C29.3909 40.6786 29.2173 40.5011 28.9844 40.3828C28.7554 40.2607 28.4501 40.1996 28.0684 40.1996C27.7822 40.1996 27.5322 40.253 27.3184 40.3599C27.1047 40.4668 26.9253 40.629 26.7803 40.8465C26.6352 41.0641 26.5264 41.3389 26.4539 41.6709C26.3852 41.9992 26.3509 42.3847 26.3509 42.8274V43.4171C26.3509 43.8484 26.3833 44.2282 26.4482 44.5564C26.5131 44.8808 26.6123 45.1556 26.7459 45.3808C26.8833 45.6022 27.0589 45.7701 27.2726 45.8846C27.4902 45.9953 27.7516 46.0507 28.057 46.0507C28.4157 46.0507 28.7115 45.9934 28.9444 45.8789C29.1772 45.7644 29.3547 45.5946 29.4768 45.3694C29.6027 45.1442 29.6772 44.8637 29.7001 44.5278Z" fill="white"/>
<path d="M23.6314 42.9305V43.3255C23.6314 43.9591 23.5456 44.5278 23.3738 45.0316C23.202 45.5354 22.9597 45.9648 22.6467 46.3197C22.3337 46.6709 21.9597 46.94 21.5246 47.127C21.0933 47.314 20.6143 47.4075 20.0876 47.4075C19.5647 47.4075 19.0857 47.314 18.6506 47.127C18.2193 46.94 17.8452 46.6709 17.5284 46.3197C17.2117 45.9648 16.9655 45.5354 16.7899 45.0316C16.6182 44.5278 16.5323 43.9591 16.5323 43.3255V42.9305C16.5323 42.2931 16.6182 41.7244 16.7899 41.2244C16.9617 40.7206 17.204 40.2912 17.517 39.9362C17.8338 39.5813 18.2078 39.3103 18.6391 39.1233C19.0742 38.9362 19.5532 38.8427 20.0761 38.8427C20.6028 38.8427 21.0818 38.9362 21.5131 39.1233C21.9482 39.3103 22.3223 39.5813 22.6353 39.9362C22.952 40.2912 23.1963 40.7206 23.3681 41.2244C23.5436 41.7244 23.6314 42.2931 23.6314 42.9305ZM21.8967 43.3255V42.919C21.8967 42.4763 21.8566 42.087 21.7765 41.7511C21.6963 41.4152 21.578 41.1328 21.4215 40.9038C21.265 40.6748 21.0742 40.503 20.849 40.3885C20.6238 40.2702 20.3662 40.211 20.0761 40.211C19.7861 40.211 19.5284 40.2702 19.3032 40.3885C19.0819 40.503 18.8929 40.6748 18.7365 40.9038C18.5838 41.1328 18.4674 41.4152 18.3872 41.7511C18.3071 42.087 18.267 42.4763 18.267 42.919V43.3255C18.267 43.7644 18.3071 44.1537 18.3872 44.4934C18.4674 44.8293 18.5857 45.1137 18.7422 45.3465C18.8987 45.5755 19.0895 45.7491 19.3147 45.8675C19.5399 45.9858 19.7975 46.0449 20.0876 46.0449C20.3777 46.0449 20.6353 45.9858 20.8605 45.8675C21.0857 45.7491 21.2746 45.5755 21.4273 45.3465C21.5799 45.1137 21.6963 44.8293 21.7765 44.4934C21.8566 44.1537 21.8967 43.7644 21.8967 43.3255Z" fill="white"/>
<path d="M11.7175 47.2929H9.90259L9.91404 45.9533H11.7175C12.1678 45.9533 12.5476 45.8521 12.8568 45.6498C13.1659 45.4437 13.3987 45.1441 13.5552 44.751C13.7155 44.3579 13.7957 43.8827 13.7957 43.3254V42.9189C13.7957 42.4915 13.7499 42.1155 13.6583 41.7911C13.5705 41.4667 13.4388 41.1938 13.2632 40.9724C13.0877 40.751 12.872 40.585 12.6163 40.4743C12.3606 40.3598 12.0667 40.3026 11.7346 40.3026H9.86824V38.9572H11.7346C12.2919 38.9572 12.8014 39.0526 13.2632 39.2434C13.7289 39.4304 14.1316 39.6995 14.4712 40.0507C14.8109 40.4018 15.0724 40.8216 15.2556 41.3102C15.4426 41.7949 15.5361 42.335 15.5361 42.9304V43.3254C15.5361 43.917 15.4426 44.4571 15.2556 44.9456C15.0724 45.4342 14.8109 45.854 14.4712 46.2052C14.1354 46.5525 13.7327 46.8216 13.2632 47.0124C12.7976 47.1994 12.2823 47.2929 11.7175 47.2929ZM10.8759 38.9572V47.2929H9.15833V38.9572H10.8759Z" fill="white"/>
</svg>
