<svg width="60" height="60" viewBox="0 0 60 60" fill="none" xmlns="http://www.w3.org/2000/svg">
<path d="M0 4C0 1.79086 1.79086 0 4 0H56C58.2091 0 60 1.79086 60 4V56C60 58.2091 58.2091 60 56 60H4C1.79086 60 0 58.2091 0 56V4Z" fill="#8B5CF6"/>
<path fill-rule="evenodd" clip-rule="evenodd" d="M49.2888 22.3732V43.0189C49.2888 44.1716 48.8308 45.2772 48.0157 46.0923C47.2006 46.9074 46.095 47.3654 44.9423 47.3654H31.9029V45.1921H44.9423C45.5187 45.1921 46.0714 44.9632 46.479 44.5556C46.8866 44.148 47.1155 43.5953 47.1155 43.0189V22.3732H42.7691C41.9045 22.3732 41.0753 22.0298 40.464 21.4184C39.8527 20.8071 39.5092 19.9779 39.5092 19.1134V14.7669H27.5564C26.9801 14.7669 26.4273 14.9959 26.0197 15.4034C25.6122 15.811 25.3832 16.3638 25.3832 16.9401V36.4992H23.21V16.9401C23.21 15.7874 23.6679 14.6819 24.483 13.8667C25.2982 13.0516 26.4037 12.5937 27.5564 12.5937H39.5092L49.2888 22.3732Z" fill="white"/>
<path d="M27.6053 38.584V47.4063H25.7875V38.584H27.6053ZM31.1197 42.3529V43.7708H27.1084V42.3529H31.1197ZM31.1197 38.584V40.0079H27.1084V38.584H31.1197Z" fill="white"/>
<path d="M20.9214 47.4063H19.0007L19.0128 45.9885H20.9214C21.3981 45.9885 21.8 45.8814 22.1272 45.6673C22.4544 45.4492 22.7009 45.1321 22.8665 44.716C23.0361 44.2999 23.121 43.797 23.121 43.2073V42.777C23.121 42.3246 23.0725 41.9267 22.9755 41.5834C22.8826 41.24 22.7433 40.9512 22.5575 40.7169C22.3716 40.4826 22.1434 40.3069 21.8728 40.1897C21.6021 40.0685 21.2911 40.0079 20.9396 40.0079H18.9643V38.584H20.9396C21.5294 38.584 22.0687 38.685 22.5575 38.887C23.0503 39.0849 23.4764 39.3697 23.836 39.7413C24.1955 40.113 24.4722 40.5573 24.6661 41.0744C24.864 41.5874 24.963 42.159 24.963 42.7892V43.2073C24.963 43.8334 24.864 44.405 24.6661 44.922C24.4722 45.4391 24.1955 45.8834 23.836 46.2551C23.4805 46.6227 23.0543 46.9075 22.5575 47.1094C22.0646 47.3074 21.5193 47.4063 20.9214 47.4063ZM20.0307 38.584V47.4063H18.2129V38.584H20.0307Z" fill="white"/>
<path d="M14.1467 44.2616H11.8987V42.8437H14.1467C14.4941 42.8437 14.7768 42.7871 14.995 42.674C15.2131 42.5569 15.3727 42.3953 15.4737 42.1893C15.5747 41.9833 15.6251 41.751 15.6251 41.4925C15.6251 41.2299 15.5747 40.9855 15.4737 40.7593C15.3727 40.5331 15.2131 40.3513 14.995 40.214C14.7768 40.0766 14.4941 40.0079 14.1467 40.0079H12.5289V47.4063H10.7111V38.584H14.1467C14.8374 38.584 15.4292 38.7092 15.9221 38.9597C16.4189 39.2061 16.7986 39.5474 17.0612 39.9837C17.3238 40.42 17.455 40.9189 17.455 41.4804C17.455 42.0499 17.3238 42.5427 17.0612 42.9588C16.7986 43.3749 16.4189 43.696 15.9221 43.9222C15.4292 44.1485 14.8374 44.2616 14.1467 44.2616Z" fill="white"/>
</svg>
